<?xml version="1.0" encoding="UTF-8"?>
<svg version="1.1" xmlns="http://www.w3.org/2000/svg" width="183" height="60">
<path d="M0 0 C60.39 0 120.78 0 183 0 C183 19.8 183 39.6 183 60 C122.61 60 62.22 60 0 60 C0 40.2 0 20.4 0 0 Z " fill="#FBF9FC" transform="translate(0,0)"/>
<path d="M0 0 C1.39456867 0.00574201 2.78910972 0.01875397 4.18359375 0.03515625 C6.63796875 0.05578125 9.09234375 0.07640625 11.62109375 0.09765625 C11.62109375 5.37765625 11.62109375 10.65765625 11.62109375 16.09765625 C17.56109375 16.09765625 23.50109375 16.09765625 29.62109375 16.09765625 C29.64791674 20.41019708 29.66784619 24.72257332 29.68359375 29.03515625 C29.69197266 30.26685547 29.70035156 31.49855469 29.70898438 32.76757812 C29.71220703 33.93740234 29.71542969 35.10722656 29.71875 36.3125 C29.72398682 37.396521 29.72922363 38.48054199 29.73461914 39.59741211 C29.62109375 42.09765625 29.62109375 42.09765625 28.62109375 43.09765625 C26.24540855 43.18605295 23.89900701 43.2129593 21.5234375 43.1953125 C20.46014977 43.19319008 20.46014977 43.19319008 19.37538147 43.19102478 C17.10307663 43.18541068 14.830869 43.17285588 12.55859375 43.16015625 C11.02148579 43.15514306 9.4843763 43.15057984 7.94726562 43.14648438 C4.17183733 43.13543667 0.39648204 43.11816266 -3.37890625 43.09765625 C-3.70890625 41.44765625 -4.03890625 39.79765625 -4.37890625 38.09765625 C-5.30703125 38.01515625 -6.23515625 37.93265625 -7.19140625 37.84765625 C-10.37890625 37.09765625 -10.37890625 37.09765625 -12.25390625 35.41015625 C-13.66874106 32.5018847 -13.59666858 30.29150379 -13.37890625 27.09765625 C-12.71890625 26.76765625 -12.05890625 26.43765625 -11.37890625 26.09765625 C-11.42015625 27.02578125 -11.46140625 27.95390625 -11.50390625 28.91015625 C-11.65026964 32.25575344 -11.65026964 32.25575344 -9.37890625 35.09765625 C-6.69961675 35.5645044 -6.69961675 35.5645044 -3.56640625 35.49609375 C-1.83003906 35.50189453 -1.83003906 35.50189453 -0.05859375 35.5078125 C1.15570313 35.49621094 2.37 35.48460937 3.62109375 35.47265625 C4.83539062 35.48425781 6.0496875 35.49585938 7.30078125 35.5078125 C8.45835938 35.50394531 9.6159375 35.50007813 10.80859375 35.49609375 C12.40767578 35.49101807 12.40767578 35.49101807 14.0390625 35.48583984 C14.89113281 35.35773926 15.74320313 35.22963867 16.62109375 35.09765625 C18.82119239 31.7975083 19.24428378 30.92582355 18.62109375 27.09765625 C15.85660296 22.74148894 14.90239365 21.39172508 9.80859375 20.22265625 C8.23078125 20.16078125 8.23078125 20.16078125 6.62109375 20.09765625 C6.29109375 19.10765625 5.96109375 18.11765625 5.62109375 17.09765625 C4.18383504 16.92892147 2.74627537 16.76274888 1.30859375 16.59765625 C0.10783203 16.4584375 0.10783203 16.4584375 -1.1171875 16.31640625 C-3.4978718 16.04952162 -3.4978718 16.04952162 -6.37890625 16.09765625 C-6.04890625 15.76765625 -5.71890625 15.43765625 -5.37890625 15.09765625 C-5.16921874 12.76779502 -5.01075236 10.43321589 -4.87890625 8.09765625 C-4.42900664 0.12800597 -4.42900664 0.12800597 0 0 Z " fill="#850AFB" transform="translate(17.37890625,7.90234375)"/>
<path d="M0 0 C1.34789347 0.98028616 2.68212715 1.97971135 4 3 C4.94875 3.0825 5.8975 3.165 6.875 3.25 C10.87000028 4.20880007 12.42993046 5.84909602 14.93359375 9.01953125 C16 11 16 11 16 14.8125 C15 18 15 18 13 20 C8.70645058 20.48609303 4.38041918 20.37039913 0.0625 20.375 C-1.74637695 20.41173828 -1.74637695 20.41173828 -3.59179688 20.44921875 C-4.74615234 20.45308594 -5.90050781 20.45695312 -7.08984375 20.4609375 C-8.15066162 20.46915527 -9.21147949 20.47737305 -10.30444336 20.48583984 C-13 20 -13 20 -14.87719727 18.17822266 C-16.60047976 14.83507709 -15.85443865 12.6008486 -15 9 C-13.72142728 5.16428185 -12.7841721 2.69704187 -9.75 0 C-6.07444741 -1.33656458 -3.76471041 -0.95828992 0 0 Z " fill="#F8F0FE" transform="translate(21,24)"/>
<path d="M0 0 C9 0 9 0 13 2 C15.10437595 6.2087519 14.51756526 11.42715866 14 16 C12.0625 19.25 12.0625 19.25 9 21 C6.03 21 3.06 21 0 21 C0 14.07 0 7.14 0 0 Z " fill="#880FFB" transform="translate(54,13)"/>
<path d="M0 0 C0.99 0 1.98 0 3 0 C2.835 0.70125 2.67 1.4025 2.5 2.125 C1.89942288 5.03722875 1.89942288 5.03722875 2.0625 8.1875 C2 11 2 11 0 13 C-3.125 13.125 -3.125 13.125 -6 13 C-6 13.66 -6 14.32 -6 15 C-4.700625 14.979375 -3.40125 14.95875 -2.0625 14.9375 C-0.70834367 14.91600546 0.64756083 14.92851801 2 15 C3 16 3 16 3.1875 18.9375 C3 22 3 22 1 24 C-1.34765625 24.23046875 -1.34765625 24.23046875 -4.0625 24.1875 C-4.96097656 24.18105469 -5.85945313 24.17460938 -6.78515625 24.16796875 C-9 24 -9 24 -10 23 C-10.09894455 21.5653041 -10.12970735 20.12559603 -10.125 18.6875 C-10.12757812 17.90761719 -10.13015625 17.12773438 -10.1328125 16.32421875 C-10.00474219 14.08298838 -9.55720697 12.16540596 -9 10 C-9.061875 9.154375 -9.12375 8.30875 -9.1875 7.4375 C-9 5 -9 5 -7.25 3.1875 C-5 2 -5 2 -1 2 C-0.67 1.34 -0.34 0.68 0 0 Z " fill="#8911FB" transform="translate(87,15)"/>
<path d="M0 0 C2.63901236 1.01500475 3.71000771 1.72768793 5.4375 3.9375 C5.8359375 6.3125 5.8359375 6.3125 5.8125 8.9375 C5.82023437 9.80375 5.82796875 10.67 5.8359375 11.5625 C5.36319916 14.38039127 4.72110795 15.2649984 2.4375 16.9375 C-0.5625 17.4375 -0.5625 17.4375 -3.5625 16.9375 C-6.17630886 14.14943721 -6.78488513 11.58746636 -7 7.875 C-6.5625 3.9375 -6.5625 3.9375 -4.875 1.375 C-2.5625 -0.0625 -2.5625 -0.0625 0 0 Z " fill="#8E1BFB" transform="translate(119.5625,17.0625)"/>
<path d="M0 0 C2.375 1 2.375 1 3.6875 2.75 C4.45905427 5.27508669 4.52089484 7.37389293 4.375 10 C2.065 10 -0.245 10 -2.625 10 C-2.295 10.99 -1.965 11.98 -1.625 13 C-0.965 13.33 -0.305 13.66 0.375 14 C0.375 13.01 0.375 12.02 0.375 11 C1.695 11 3.015 11 4.375 11 C3.80155063 13.86724686 3.5135485 14.8614515 1.375 17 C-2.1875 16.75 -2.1875 16.75 -5.625 16 C-7.47391267 12.30217467 -7.09301175 8.03660136 -6.625 4 C-4.60795961 0.78767642 -3.80187507 0 0 0 Z " fill="#952AFB" transform="translate(160.625,17)"/>
<path d="M0 0 C1.32 0 2.64 0 4 0 C4.33 2.97 4.66 5.94 5 9 C5.66 8.01 6.32 7.02 7 6 C8.32 6.33 9.64 6.66 11 7 C10.484375 7.5775 9.96875 8.155 9.4375 8.75 C7.77821334 10.83907305 7.77821334 10.83907305 8.1875 13 C8.98076987 15.03840339 8.98076987 15.03840339 10.0625 17.0625 C11 19 11 19 11 22 C8.11424181 21.60196439 7.17810487 21.20990931 5.25 18.9375 C4.8375 18.298125 4.425 17.65875 4 17 C3.67 18.65 3.34 20.3 3 22 C2.01 22 1.02 22 0 22 C0 14.74 0 7.48 0 0 Z " fill="#8B15FB" transform="translate(141,12)"/>
<path d="M0 0 C1.32 0 2.64 0 4 0 C4 5.61 4 11.22 4 17 C6.64 17 9.28 17 12 17 C12 18.32 12 19.64 12 21 C8.04 21 4.08 21 0 21 C0 14.07 0 7.14 0 0 Z " fill="#8810FB" transform="translate(99,13)"/>
<path d="M0 0 C0.99 0.495 0.99 0.495 2 1 C2 1.66 2 2.32 2 3 C2.55171875 3.24621094 3.1034375 3.49242187 3.671875 3.74609375 C6.46384098 5.24982039 8.78124536 7.07378099 11.25 9.0625 C12.14203125 9.77535156 13.0340625 10.48820312 13.953125 11.22265625 C14.62859375 11.80917969 15.3040625 12.39570313 16 13 C16 13.33 16 13.66 16 14 C10.72 14 5.44 14 0 14 C0 9.38 0 4.76 0 0 Z " fill="#870DFB" transform="translate(31,8)"/>
<path d="M0 0 C2.97 0 5.94 0 9 0 C9.33 0.66 9.66 1.32 10 2 C10.99 1.67 11.98 1.34 13 1 C13.5775 1.165 14.155 1.33 14.75 1.5 C17.96865733 2.21525718 20.78271155 1.55683839 24 1 C24 2.65 24 4.3 24 6 C21.31633121 7.3418344 19.84719317 6.73004953 17 6 C16.67 5.67 16.34 5.34 16 5 C15.46375 5.33 14.9275 5.66 14.375 6 C10.40328905 7.67229935 7.02922547 7.34307516 3 6 C1.66893378 5.65772583 0.33599921 5.32248257 -1 5 C-0.67 3.35 -0.34 1.7 0 0 Z " fill="#BBB8B8" transform="translate(149,44)"/>
<path d="M0 0 C2.4375 0.8125 2.4375 0.8125 4.4375 2.8125 C4.4375 4.1325 4.4375 5.4525 4.4375 6.8125 C3.4475 6.8125 2.4575 6.8125 1.4375 6.8125 C1.4375 5.8225 1.4375 4.8325 1.4375 3.8125 C0.1175 3.8125 -1.2025 3.8125 -2.5625 3.8125 C-2.2325 6.7825 -1.9025 9.7525 -1.5625 12.8125 C-0.9025 12.8125 -0.2425 12.8125 0.4375 12.8125 C0.7675 12.1525 1.0975 11.4925 1.4375 10.8125 C2.4275 10.8125 3.4175 10.8125 4.4375 10.8125 C3.5625 15.6875 3.5625 15.6875 2.4375 16.8125 C-0.5 17.0625 -0.5 17.0625 -3.5625 16.8125 C-5.78514871 13.47852694 -5.85925463 12.21735109 -5.875 8.3125 C-5.89175781 7.3534375 -5.90851563 6.394375 -5.92578125 5.40625 C-5.5625 2.8125 -5.5625 2.8125 -4.203125 0.95703125 C-2.5625 -0.1875 -2.5625 -0.1875 0 0 Z " fill="#8911FB" transform="translate(133.5625,17.1875)"/>
<path d="M0 0 C2.475 0.495 2.475 0.495 5 1 C7.45811625 4.68717438 7.31118164 6.64345704 7 11 C6.01 12.485 6.01 12.485 5 14 C3.35 14 1.7 14 0 14 C0 9.38 0 4.76 0 0 Z " fill="#F6EDFE" transform="translate(58,16)"/>
<path d="M0 0 C0.66 0 1.32 0 2 0 C2 1.32 2 2.64 2 4 C1.01 4.33 0.02 4.66 -1 5 C-1.33 8.96 -1.66 12.92 -2 17 C-3.32 17 -4.64 17 -6 17 C-6 11.72 -6 6.44 -6 1 C-4.35 1 -2.7 1 -1 1 C-0.67 0.67 -0.34 0.34 0 0 Z " fill="#9222FB" transform="translate(173,17)"/>
<path d="M0 0 C1.32 0 2.64 0 4 0 C4 5.28 4 10.56 4 16 C2.68 16 1.36 16 0 16 C0 10.72 0 5.44 0 0 Z " fill="#9223FB" transform="translate(92,18)"/>
<path d="M0 0 C1.32 0 2.64 0 4 0 C4 5.28 4 10.56 4 16 C2.68 16 1.36 16 0 16 C0 10.72 0 5.44 0 0 Z " fill="#9223FB" transform="translate(71,18)"/>
<path d="M0 0 C3.66666667 0 7.33333333 0 11 0 C11 1.65 11 3.3 11 5 C2.42857143 6.28571429 2.42857143 6.28571429 -1 5 C-0.67 3.35 -0.34 1.7 0 0 Z " fill="#BCB9B9" transform="translate(64,45)"/>
<path d="M0 0 C1.99954746 -0.04254356 4.00041636 -0.04080783 6 0 C6.33 0.33 6.66 0.66 7 1 C9.33944736 0.71269945 11.6739143 0.38063221 14 0 C14 1.65 14 3.3 14 5 C11.31633121 6.3418344 9.84719317 5.73004953 7 5 C6.67 4.67 6.34 4.34 6 4 C2.94729537 3.84188612 2.94729537 3.84188612 0 5 C0 3.35 0 1.7 0 0 Z " fill="#A7A3A3" transform="translate(159,45)"/>
<path d="M0 0 C1.32 0 2.64 0 4 0 C4 2.97 4 5.94 4 9 C2.68 9 1.36 9 0 9 C0 6.03 0 3.06 0 0 Z " fill="#FCF9FE" transform="translate(117,21)"/>
<path d="M0 0 C0 2.31 0 4.62 0 7 C-1.98 7 -3.96 7 -6 7 C-6.1875 4.625 -6.1875 4.625 -6 2 C-3 0 -3 0 0 0 Z " fill="#B5B1B1" transform="translate(100,44)"/>
<path d="M0 0 C2.31 0 4.62 0 7 0 C6.67 1.98 6.34 3.96 6 6 C4.35 6 2.7 6 1 6 C0.67 4.02 0.34 2.04 0 0 Z " fill="#A09C9C" transform="translate(87,44)"/>
<path d="M0 0 C1.32 0.33 2.64 0.66 4 1 C4 2.65 4 4.3 4 6 C2.68 6.33 1.36 6.66 0 7 C0 4.69 0 2.38 0 0 Z " fill="#B6B2B2" transform="translate(54,44)"/>
<path d="M0 0 C2.475 0.99 2.475 0.99 5 2 C5 3.32 5 4.64 5 6 C3.35 6 1.7 6 0 6 C0 4.02 0 2.04 0 0 Z " fill="#B1ADAD" transform="translate(109,44)"/>
<path d="M0 0 C1.65 0 3.3 0 5 0 C5 1.32 5 2.64 5 4 C3.35 4 1.7 4 0 4 C0 2.68 0 1.36 0 0 Z " fill="#DEBEFD" transform="translate(81,33)"/>
<path d="M0 0 C1.65 0 3.3 0 5 0 C5 1.65 5 3.3 5 5 C3.35 4.67 1.7 4.34 0 4 C0 2.68 0 1.36 0 0 Z " fill="#B1ADAD" transform="translate(140,46)"/>
<path d="M0 0 C0 1.65 0 3.3 0 5 C-0.99 5.495 -0.99 5.495 -2 6 C-2.99 5.67 -3.98 5.34 -5 5 C-4.625 3.0625 -4.625 3.0625 -4 1 C-2 0 -2 0 0 0 Z " fill="#BBB7B8" transform="translate(173,45)"/>
<path d="M0 0 C1.65 0 3.3 0 5 0 C5 1.65 5 3.3 5 5 C3.35 5 1.7 5 0 5 C0 3.35 0 1.7 0 0 Z " fill="#A29E9E" transform="translate(70,45)"/>
<path d="M0 0 C1.65 0 3.3 0 5 0 C5 1.65 5 3.3 5 5 C3.35 5 1.7 5 0 5 C0 3.35 0 1.7 0 0 Z " fill="#A09B9B" transform="translate(121,45)"/>
<path d="M0 0 C0.99 0 1.98 0 3 0 C3 1.65 3 3.3 3 5 C1.68 4.67 0.36 4.34 -1 4 C-0.67 2.68 -0.34 1.36 0 0 Z " fill="#EEDDFE" transform="translate(82,20)"/>
</svg>
